<?xml version="1.0" encoding="utf-8"?>
<!-- Generator: Adobe Illustrator 17.0.0, SVG Export Plug-In . SVG Version: 6.00 Build 0)  -->
<!DOCTYPE svg PUBLIC "-//W3C//DTD SVG 1.1//EN" "http://www.w3.org/Graphics/SVG/1.1/DTD/svg11.dtd">
<svg version="1.1" id="Layer_1" xmlns="http://www.w3.org/2000/svg" xmlns:xlink="http://www.w3.org/1999/xlink" x="0px" y="0px"
	 width="76px" height="76px" viewBox="0 0 76 76" enable-background="new 0 0 76 76" xml:space="preserve">
<rect fill="none" width="76" height="76"/>
<g>
	<path fill="#EDF2F6" d="M46.558,39.063c-0.005-0.009-0.011-0.017-0.016-0.026c-0.172-0.317-0.386-0.604-0.634-0.852l-3.391-3.39
		c-0.014-0.014-0.027-0.026-0.039-0.036c-0.432-0.419-0.957-0.726-1.528-0.896c0.658,0.689,1.094,1.55,1.263,2.496
		c0.05,0.284,0.076,0.574,0.076,0.863c0,0.115-0.005,0.236-0.015,0.37l2.113,2.114c0.184,0.184,0.32,0.415,0.393,0.67
		c0.042,0.146,0.064,0.298,0.064,0.452c0,0.171-0.026,0.339-0.077,0.5c-0.078,0.243-0.205,0.455-0.38,0.629l-1.378,1.378
		c-0.295,0.295-0.695,0.458-1.125,0.458c-0.43,0-0.83-0.163-1.125-0.458l-1.313-1.313l-0.85-0.85l-1.227-1.227
		c-0.122-0.122-0.223-0.266-0.3-0.429c-0.102-0.214-0.156-0.455-0.156-0.696c0-0.163,0.024-0.323,0.071-0.478
		c0.004-0.014,0.009-0.027,0.015-0.041l0.008-0.022c0.02-0.057,0.039-0.103,0.058-0.145c0.011-0.024,0.023-0.048,0.036-0.072
		c0.023-0.043,0.049-0.086,0.079-0.132l0.013-0.019c0.009-0.014,0.018-0.028,0.028-0.041c0.05-0.068,0.099-0.126,0.149-0.175
		l0.525-0.525c-0.006-0.063-0.02-0.118-0.043-0.166c-0.022-0.046-0.049-0.086-0.081-0.118l-1.227-1.227l-0.09-0.09l-0.605,0.605
		c-0.059,0.059-0.117,0.122-0.179,0.193c-0.009,0.01-0.018,0.021-0.027,0.032l-0.02,0.024c-0.042,0.049-0.081,0.099-0.119,0.15
		c-0.013,0.017-0.025,0.035-0.038,0.052l-0.007,0.01c-0.038,0.053-0.074,0.106-0.108,0.16l-0.009,0.014
		c-0.008,0.013-0.017,0.026-0.025,0.039c-0.041,0.066-0.08,0.134-0.115,0.2l-0.005,0.01l-0.005,0.009
		c-0.123,0.234-0.222,0.483-0.293,0.742c-0.025,0.092-0.045,0.177-0.062,0.259c-0.05,0.251-0.076,0.504-0.076,0.755
		c0,0.221,0.02,0.444,0.058,0.66c0.135,0.757,0.492,1.443,1.03,1.982l0.706,0.706l1.032,1.031l1.652,1.652
		c1.459,1.459,3.832,1.459,5.291,0l1.378-1.378c0.471-0.472,0.808-1.068,0.973-1.724C46.96,41.44,47,41.13,47,40.831
		c0-0.591-0.142-1.182-0.41-1.708c-0.003-0.006-0.006-0.012-0.009-0.019c-0.002-0.005-0.004-0.01-0.007-0.015
		C46.569,39.08,46.564,39.072,46.558,39.063z"/>
	<path fill="#EDF2F6" d="M40.151,34.536l-0.706-0.706l-1.031-1.031l-1.652-1.653c-1.459-1.458-3.832-1.458-5.291,0.001l-1.378,1.378
		c-0.472,0.471-0.808,1.068-0.973,1.724C29.04,34.56,29,34.87,29,35.169c0,0.591,0.142,1.181,0.41,1.708
		c0.003,0.006,0.006,0.013,0.009,0.019c0.002,0.005,0.004,0.01,0.007,0.015c0.004,0.008,0.009,0.017,0.015,0.025
		c0.005,0.009,0.011,0.018,0.016,0.027c0.173,0.317,0.386,0.603,0.635,0.852l3.39,3.39c0.014,0.015,0.027,0.026,0.039,0.037
		c0.432,0.419,0.957,0.726,1.528,0.896c-0.658-0.689-1.093-1.549-1.262-2.496c-0.051-0.283-0.077-0.574-0.077-0.863
		c0-0.114,0.005-0.235,0.015-0.37l-2.113-2.114c-0.184-0.184-0.32-0.415-0.393-0.67c-0.043-0.146-0.064-0.298-0.064-0.451
		c0-0.171,0.026-0.339,0.078-0.5c0.078-0.243,0.205-0.455,0.38-0.629l1.378-1.378c0.61-0.61,1.641-0.61,2.25,0l1.313,1.313
		l0.85,0.85l1.227,1.227c0.122,0.122,0.223,0.266,0.3,0.429c0.102,0.214,0.156,0.454,0.156,0.696c0,0.163-0.024,0.323-0.071,0.478
		c-0.004,0.014-0.009,0.028-0.015,0.042l-0.008,0.022c-0.02,0.057-0.039,0.103-0.058,0.145c-0.011,0.024-0.024,0.048-0.037,0.072
		c-0.023,0.044-0.049,0.088-0.079,0.132l-0.012,0.018c-0.009,0.015-0.019,0.029-0.029,0.042c-0.05,0.068-0.099,0.126-0.148,0.175
		l-0.526,0.525c0.006,0.063,0.02,0.118,0.043,0.166c0.022,0.046,0.049,0.086,0.081,0.117l1.227,1.227l0.09,0.09l0.605-0.605
		c0.058-0.058,0.116-0.121,0.18-0.193c0.009-0.011,0.019-0.022,0.027-0.033l0.019-0.022c0.042-0.05,0.081-0.1,0.119-0.151
		c0.016-0.02,0.03-0.041,0.045-0.062c0.039-0.053,0.074-0.106,0.109-0.16l0.011-0.018l0.022-0.035c0.041-0.066,0.08-0.133,0.115-0.2
		l0.005-0.009l0.005-0.01c0.123-0.233,0.222-0.483,0.294-0.741c0.024-0.089,0.044-0.174,0.062-0.259
		c0.05-0.25,0.076-0.503,0.076-0.755c0-0.222-0.02-0.444-0.058-0.66C41.047,35.761,40.69,35.075,40.151,34.536z"/>
</g>
</svg>
