<?xml version="1.0" encoding="utf-8"?>
<!-- Generator: Adobe Illustrator 17.0.0, SVG Export Plug-In . SVG Version: 6.00 Build 0)  -->
<!DOCTYPE svg PUBLIC "-//W3C//DTD SVG 1.1//EN" "http://www.w3.org/Graphics/SVG/1.1/DTD/svg11.dtd">
<svg version="1.1" id="Layer_1" xmlns="http://www.w3.org/2000/svg" xmlns:xlink="http://www.w3.org/1999/xlink" x="0px" y="0px"
	 width="76px" height="76px" viewBox="0 0 76 76" enable-background="new 0 0 76 76" xml:space="preserve">
<rect fill="none" width="76" height="76"/>
<g>
	<path fill="#EDF2F6" d="M25,39.086c0-0.881,0.225-1.72,0.675-2.516c0.45-0.796,1.045-1.46,1.783-1.99l1.223,1.035
		c-0.425,0.258-0.822,0.626-1.191,1.105s-0.597,0.942-0.682,1.389c0.153-0.051,0.297-0.076,0.433-0.076
		c0.45,0,0.824,0.151,1.121,0.452c0.297,0.301,0.446,0.69,0.446,1.167c0,0.485-0.174,0.902-0.522,1.249
		c-0.348,0.347-0.764,0.52-1.248,0.52c-0.561,0-1.04-0.209-1.439-0.627C25.2,40.375,25,39.806,25,39.086z M29.828,39.086
		c0-0.881,0.225-1.72,0.675-2.516c0.45-0.796,1.045-1.46,1.783-1.99l1.223,1.035c-0.433,0.258-0.834,0.628-1.204,1.111
		c-0.369,0.482-0.597,0.943-0.682,1.382c0.153-0.051,0.301-0.076,0.446-0.076c0.45,0,0.824,0.151,1.121,0.452
		c0.297,0.301,0.446,0.691,0.446,1.168c0,0.485-0.174,0.901-0.522,1.248c-0.348,0.347-0.764,0.52-1.248,0.52
		c-0.561,0-1.04-0.209-1.439-0.627C30.028,40.375,29.828,39.806,29.828,39.086z"/>
	<path fill="#EDF2F6" d="M43.127,36.376c0-0.481,0.155-0.894,0.465-1.239c0.311-0.346,0.688-0.519,1.132-0.519
		c0.506,0,0.935,0.211,1.288,0.633c0.352,0.421,0.529,0.995,0.529,1.72c0,0.869-0.199,1.692-0.598,2.469s-0.931,1.429-1.598,1.955
		l-1.127-0.994c0.391-0.255,0.753-0.618,1.087-1.089c0.333-0.471,0.535-0.924,0.604-1.356c-0.062,0.033-0.196,0.05-0.402,0.05
		c-0.391,0-0.719-0.154-0.983-0.461C43.26,37.238,43.127,36.848,43.127,36.376z M47.586,36.376c0-0.481,0.157-0.894,0.471-1.24
		c0.314-0.345,0.693-0.518,1.138-0.518c0.506,0,0.933,0.211,1.281,0.633C50.826,35.672,51,36.245,51,36.97
		c0,0.869-0.197,1.692-0.592,2.469c-0.395,0.777-0.926,1.429-1.592,1.955l-1.126-0.994c0.391-0.255,0.753-0.618,1.086-1.089
		c0.333-0.471,0.535-0.924,0.604-1.357c-0.061,0.034-0.195,0.051-0.402,0.051c-0.398,0-0.73-0.154-0.994-0.462
		C47.718,37.238,47.586,36.847,47.586,36.376z"/>
</g>
</svg>
