<?xml version="1.0" encoding="utf-8"?>
<!-- Generator: Adobe Illustrator 17.0.0, SVG Export Plug-In . SVG Version: 6.00 Build 0)  -->
<!DOCTYPE svg PUBLIC "-//W3C//DTD SVG 1.1//EN" "http://www.w3.org/Graphics/SVG/1.1/DTD/svg11.dtd">
<svg version="1.1" id="Layer_1" xmlns="http://www.w3.org/2000/svg" xmlns:xlink="http://www.w3.org/1999/xlink" x="0px" y="0px"
	 width="76px" height="76px" viewBox="0 0 76 76" enable-background="new 0 0 76 76" xml:space="preserve">
<rect fill="none" width="76" height="76"/>
<g>
	<g>
		<rect x="34" y="30.5" fill="#EDF2F6" width="12.5" height="3"/>
		<path fill="#EDF2F6" d="M31,30.5c-0.759,0-1.5,0.741-1.5,1.5c0,0.759,0.74,1.5,1.5,1.5c0.759,0,1.5-0.741,1.5-1.5
			C32.5,31.241,31.759,30.5,31,30.5z"/>
		<rect x="34" y="36.5" fill="#EDF2F6" width="12.5" height="3"/>
		<path fill="#EDF2F6" d="M31,36.5c-0.759,0-1.5,0.741-1.5,1.5c0,0.759,0.74,1.5,1.5,1.5c0.759,0,1.5-0.741,1.5-1.5
			C32.5,37.241,31.759,36.5,31,36.5z"/>
		<rect x="34" y="42.5" fill="#EDF2F6" width="12.5" height="3"/>
		<path fill="#EDF2F6" d="M31,42.5c-0.759,0-1.5,0.741-1.5,1.5c0,0.759,0.74,1.5,1.5,1.5c0.759,0,1.5-0.741,1.5-1.5
			C32.5,43.241,31.759,42.5,31,42.5z"/>
	</g>
</g>
</svg>
